<?xml version="1.0" encoding="UTF-8" standalone="no"?>
<svg
   xmlns:dc="http://purl.org/dc/elements/1.1/"
   xmlns:cc="http://creativecommons.org/ns#"
   xmlns:rdf="http://www.w3.org/1999/02/22-rdf-syntax-ns#"
   xmlns:svg="http://www.w3.org/2000/svg"
   xmlns="http://www.w3.org/2000/svg"
   id="svg3144"
   version="1.1"
   viewBox="0 0 30.455408 35.078491"
   height="35.078491mm"
   width="30.455408mm">
  <defs
     id="defs3138" />
  <metadata
     id="metadata3141">
    <rdf:RDF>
      <cc:Work
         rdf:about="">
        <dc:format>image/svg+xml</dc:format>
        <dc:type
           rdf:resource="http://purl.org/dc/dcmitype/StillImage" />
        <dc:title></dc:title>
      </cc:Work>
    </rdf:RDF>
  </metadata>
  <g
     transform="translate(-53.905702,-59.890505)"
     id="layer1">
    <g
       id="g2778"
       transform="matrix(0.35277777,0,0,-0.35277777,-41.258484,228.61926)">
      <g
         id="g22"
         transform="translate(299.7227,402.1484)">
        <path
           d="M 0,0 V -7.399 C 0,-16.4 13.199,-18.962 13.199,-18.962 V 0 Z"
           style="fill:#a2cf31;fill-opacity:1;fill-rule:nonzero;stroke:none"
           id="path24" />
      </g>
      <g
         id="g26"
         transform="translate(312.9229,460.4028)">
        <path
           d="m 0,0 c -13.655,0 -24.765,-11.109 -24.765,-24.765 0,-8.725 4.679,-16.904 12.21,-21.344 0.458,-0.27 0.739,-0.761 0.739,-1.292 V -63.9 c 0,-6.516 5.3,-11.817 11.816,-11.817 6.516,0 11.816,5.301 11.816,11.817 v 16.498 c 0,0.531 0.281,1.023 0.739,1.292 7.531,4.441 12.21,12.619 12.21,21.345 C 24.765,-11.109 13.655,0 0,0 m 0,-78.717 c -8.17,0 -14.816,6.647 -14.816,14.817 v 15.657 c -8.009,5.068 -12.949,13.984 -12.949,23.478 C -27.765,-9.455 -15.31,3 0,3 15.31,3 27.765,-9.455 27.765,-24.765 c 0,-9.494 -4.94,-18.411 -12.949,-23.478 V -63.9 C 14.816,-72.07 8.17,-78.717 0,-78.717"
           style="fill:#399822;fill-opacity:1;fill-rule:nonzero;stroke:none"
           id="path28" />
      </g>
      <g
         id="g30"
         transform="translate(325.9268,400.3003)">
        <path
           d="m 0,0 h -26.008 c -0.828,0 -1.5,0.671 -1.5,1.5 0,0.829 0.672,1.5 1.5,1.5 H 0 C 0.828,3 1.5,2.329 1.5,1.5 1.5,0.671 0.828,0 0,0"
           style="fill:#399822;fill-opacity:1;fill-rule:nonzero;stroke:none"
           id="path32" />
      </g>
      <g
         id="g34"
         transform="translate(312.9229,400.6484)">
        <path
           d="m 0,0 c -0.828,0 -1.5,0.671 -1.5,1.5 v 24.729 c 0,0.828 0.672,1.5 1.5,1.5 0.828,0 1.5,-0.672 1.5,-1.5 V 1.5 C 1.5,0.671 0.828,0 0,0"
           style="fill:#399822;fill-opacity:1;fill-rule:nonzero;stroke:none"
           id="path36" />
      </g>
      <g
         id="g38"
         transform="translate(330.4121,435.1206)">
        <path
           d="m 0,0 c 0,2.695 -1.954,4.922 -4.521,5.372 1.497,2.133 1.304,5.089 -0.602,6.995 -1.906,1.907 -4.863,2.099 -6.995,0.601 -0.45,2.567 -2.677,4.521 -5.372,4.521 -2.697,0 -4.923,-1.954 -5.372,-4.52 -2.133,1.495 -5.089,1.303 -6.996,-0.602 -1.906,-1.906 -2.098,-4.862 -0.602,-6.995 -2.565,-0.45 -4.519,-2.677 -4.519,-5.372 0,-2.695 1.954,-4.922 4.518,-5.372 -1.495,-2.134 -1.303,-5.09 0.603,-6.996 1.907,-1.905 4.863,-2.098 6.996,-0.6 0.449,-2.567 2.675,-4.523 5.372,-4.523 2.695,0 4.922,1.956 5.372,4.523 2.132,-1.498 5.089,-1.305 6.995,0.6 1.906,1.906 2.099,4.862 0.602,6.996 C -1.954,-4.922 0,-2.695 0,0"
           style="fill:#a2cf31;fill-opacity:1;fill-rule:nonzero;stroke:none"
           id="path40" />
      </g>
      <g
         id="g42"
         transform="translate(320.8115,435.1201)">
        <path
           d="m 0,0 c 0,-4.357 -3.531,-7.889 -7.89,-7.889 -4.357,0 -7.888,3.532 -7.888,7.889 0,4.357 3.531,7.889 7.888,7.889 C -3.531,7.889 0,4.357 0,0"
           style="fill:#ffffff;fill-opacity:1;fill-rule:nonzero;stroke:none"
           id="path44" />
      </g>
      <g
         id="g46"
         transform="translate(345.5684,434.1216)">
        <path
           d="m 0,0 c -0.552,0 -1,0.448 -1,1 0,0.552 0.447,1 1,1 l 6.684,10e-4 c 0.551,0 1,-0.448 1,-1 0,-0.552 -0.448,-1 -1,-1 z"
           style="fill:#a2cf31;fill-opacity:1;fill-rule:nonzero;stroke:none"
           id="path48" />
      </g>
      <g
         id="g50"
         transform="translate(280.2744,434.1216)">
        <path
           d="m 0,0 v 0 l -6.683,0.001 c -0.552,0 -1,0.448 -1,1 0,0.552 0.449,1 1,1 L 0,2 C 0.553,2 1,1.552 1,1 1,0.448 0.552,0 0,0"
           style="fill:#a2cf31;fill-opacity:1;fill-rule:nonzero;stroke:none"
           id="path52" />
      </g>
      <g
         id="g54"
         transform="translate(343.083,446.6138)">
        <path
           d="m 0,0 c -0.392,0 -0.765,0.232 -0.924,0.618 -0.212,0.51 0.03,1.095 0.541,1.306 l 6.175,2.56 C 6.301,4.693 6.888,4.454 7.099,3.943 7.311,3.433 7.068,2.848 6.558,2.636 L 0.383,0.077 C 0.258,0.025 0.128,0 0,0"
           style="fill:#a2cf31;fill-opacity:1;fill-rule:nonzero;stroke:none"
           id="path56" />
      </g>
      <g
         id="g58"
         transform="translate(276.585,419.0713)">
        <path
           d="m 0,0 c -0.393,0 -0.765,0.233 -0.924,0.618 -0.211,0.51 0.031,1.095 0.541,1.306 L 5.792,4.48 C 6.302,4.69 6.888,4.449 7.099,3.938 7.31,3.428 7.067,2.843 6.558,2.632 L 0.383,0.077 C 0.258,0.025 0.128,0 0,0"
           style="fill:#a2cf31;fill-opacity:1;fill-rule:nonzero;stroke:none"
           id="path60" />
      </g>
      <g
         id="g62"
         transform="translate(336.0068,457.2051)">
        <path
           d="m 0,0 c -0.256,0 -0.512,0.098 -0.707,0.292 -0.391,0.391 -0.391,1.024 0,1.415 l 4.726,4.728 c 0.39,0.391 1.023,0.39 1.414,0.001 0.39,-0.391 0.39,-1.024 0,-1.415 L 0.707,0.293 C 0.512,0.098 0.256,0 0,0"
           style="fill:#a2cf31;fill-opacity:1;fill-rule:nonzero;stroke:none"
           id="path64" />
      </g>
      <g
         id="g66"
         transform="translate(285.1104,406.3115)">
        <path
           d="m 0,0 c -0.256,0 -0.512,0.098 -0.707,0.293 -0.391,0.391 -0.391,1.024 0,1.414 l 4.726,4.725 c 0.39,0.39 1.023,0.39 1.414,0 0.39,-0.391 0.39,-1.024 0,-1.414 L 0.707,0.293 C 0.512,0.098 0.256,0 0,0"
           style="fill:#a2cf31;fill-opacity:1;fill-rule:nonzero;stroke:none"
           id="path68" />
      </g>
      <g
         id="g70"
         transform="translate(325.416,464.2817)">
        <path
           d="m 0,0 c -0.128,0 -0.257,0.025 -0.383,0.077 -0.51,0.211 -0.752,0.796 -0.541,1.306 L 1.632,7.559 C 1.843,8.069 2.427,8.31 2.938,8.1 3.448,7.889 3.69,7.304 3.479,6.794 L 0.924,0.618 C 0.765,0.233 0.393,0 0,0"
           style="fill:#a2cf31;fill-opacity:1;fill-rule:nonzero;stroke:none"
           id="path72" />
      </g>
      <g
         id="g74"
         transform="translate(312.9229,466.7666)">
        <path
           d="m 0,0 c -0.552,0 -1,0.447 -1,1 l -0.002,6.684 c 0,0.552 0.447,1.001 1,1.001 0.552,0 1,-0.448 1,-1 L 1,1 C 1,0.448 0.553,0 0,0"
           style="fill:#a2cf31;fill-opacity:1;fill-rule:nonzero;stroke:none"
           id="path76" />
      </g>
      <g
         id="g78"
         transform="translate(300.4297,464.2808)">
        <path
           d="m 0,0 c -0.392,0 -0.765,0.232 -0.924,0.618 l -2.559,6.175 c -0.212,0.511 0.03,1.096 0.541,1.307 0.508,0.209 1.095,-0.03 1.306,-0.541 L 0.924,1.383 C 1.135,0.873 0.894,0.288 0.383,0.077 0.258,0.025 0.128,0 0,0"
           style="fill:#a2cf31;fill-opacity:1;fill-rule:nonzero;stroke:none"
           id="path80" />
      </g>
      <g
         id="g82"
         transform="translate(289.8398,457.2051)">
        <path
           d="m 0,0 c -0.256,0 -0.512,0.098 -0.707,0.292 l -4.73,4.726 c -0.39,0.391 -0.39,1.024 0,1.415 0.391,0.39 1.024,0.39 1.415,0 L 0.707,1.708 C 1.098,1.317 1.098,0.684 0.707,0.293 0.512,0.098 0.256,0 0,0"
           style="fill:#a2cf31;fill-opacity:1;fill-rule:nonzero;stroke:none"
           id="path84" />
      </g>
      <g
         id="g86"
         transform="translate(340.7324,406.3081)">
        <path
           d="M 0,0 C -0.256,0 -0.512,0.098 -0.707,0.293 L -5.433,5.02 c -0.39,0.391 -0.39,1.024 0,1.414 0.391,0.391 1.024,0.391 1.414,0 L 0.707,1.707 C 1.098,1.316 1.098,0.683 0.707,0.293 0.512,0.098 0.256,0 0,0"
           style="fill:#a2cf31;fill-opacity:1;fill-rule:nonzero;stroke:none"
           id="path88" />
      </g>
      <g
         id="g90"
         transform="translate(282.7637,446.6138)">
        <path
           d="m 0,0 c -0.128,0 -0.257,0.025 -0.382,0.077 l -6.179,2.556 c -0.51,0.211 -0.752,0.796 -0.542,1.306 0.211,0.51 0.797,0.752 1.306,0.541 L 0.382,1.924 C 0.893,1.713 1.135,1.128 0.924,0.618 0.765,0.233 0.393,0 0,0"
           style="fill:#a2cf31;fill-opacity:1;fill-rule:nonzero;stroke:none"
           id="path92" />
      </g>
      <g
         id="g94"
         transform="translate(349.2588,419.0669)">
        <path
           d="m 0,0 c -0.128,0 -0.258,0.025 -0.383,0.077 l -6.174,2.559 c -0.51,0.211 -0.753,0.796 -0.541,1.306 0.211,0.512 0.8,0.751 1.307,0.541 L 0.383,1.924 C 0.894,1.713 1.136,1.128 0.924,0.618 0.765,0.232 0.392,0 0,0"
           style="fill:#a2cf31;fill-opacity:1;fill-rule:nonzero;stroke:none"
           id="path96" />
      </g>
    </g>
  </g>
</svg>
