<svg xmlns="http://www.w3.org/2000/svg" viewBox="0 0 50 50"><defs><style>.cls-1{fill:#ffd10a;}.cls-2{fill:#fff;}.cls-3{fill:#010101;opacity:0.09;}</style></defs><title>Recurso 21</title><g id="Capa_2" data-name="Capa 2"><g id="Layer_2" data-name="Layer 2"><path class="cls-1" d="M50,25a24.66,24.66,0,0,1-.18,3c0,.31-.08.61-.13.92a1.7,1.7,0,0,1,0,.22,25,25,0,0,1-18.6,20.12c-.36.09-.71.17-1.07.24s-.55.11-.83.15A24.64,24.64,0,0,1,25,50,25,25,0,1,1,50,25Z"/><path class="cls-2" d="M42.84,25a.85.85,0,0,1-.81.89H37.21A8.38,8.38,0,0,0,38,24.15H42A.85.85,0,0,1,42.84,25Zm-30.75-.88H8a.89.89,0,0,0,0,1.77h4.83A8.16,8.16,0,0,1,12.09,24.15ZM38.3,20.66a8.2,8.2,0,0,0-7-7.59A7.43,7.43,0,0,0,25,15.53h0A7.45,7.45,0,0,0,19.5,13a7,7,0,0,0-.79,0,8.2,8.2,0,0,0-7,7.59,9.14,9.14,0,0,0,.35,3.49h8.45a.81.81,0,0,1,.73.49l.42.92L22.79,17a.83.83,0,0,1,.78-.76h0a.83.83,0,0,1,.8.73l1.9,11.6.83-8.49a.85.85,0,0,1,.79-.79h0a.84.84,0,0,1,.8.75l.91,6.49.7-1.86a.8.8,0,0,1,.75-.55H38A9.14,9.14,0,0,0,38.3,20.66Zm-6.67,5.26L30,30.19a.81.81,0,0,1-.85.54.84.84,0,0,1-.7-.74l-.41-2.91-.78,7.86a.83.83,0,0,1-.77.79h0a.83.83,0,0,1-.8-.73l-2-12.23-.75,5.83a.85.85,0,0,1-.67.75.8.8,0,0,1-.86-.48l-1.37-3H12.83A8.84,8.84,0,0,0,14,27.52l9.89,10.86a1.51,1.51,0,0,0,2.26,0L36,27.53a8.19,8.19,0,0,0,1.17-1.61Z"/><path class="cls-3" d="M49.65,29.14a25,25,0,0,1-18.6,20.12L7.56,25.77a.78.78,0,0,0,.44.15h4.83A8.38,8.38,0,0,0,14,27.52l9.89,10.86a1.51,1.51,0,0,0,2.26,0L36,27.53a8.5,8.5,0,0,0,1.17-1.61H42a.89.89,0,0,0,0-1.77H38a9.14,9.14,0,0,0,.35-3.49,8.83,8.83,0,0,0-2.14-5Z"/></g></g></svg>